# xmcd
#
# Track frame offsets:
#	150
#	16857
#	33197
#	49495
#	69412
#	85717
#	105197
#	122657
#	136340
#	153755
#	169277
#	185987
#	202327
#	218625
#	238545
#	254850
#	274332
#	291790
#	305475
#	322887
#
# Disc length: 4512 seconds
#
# Revision: 2
# Processed by: cddbd v1.5.2PL0 Copyright (c) Steve Scherf et al.
# Submitted via: audiograbber 1.83.01
#
DISCID=24119e14
DTITLE=THMC0608 - Top Hits Monthly Aug 2006 (THM)
DYEAR=1900
DGENRE=Karaoke
TTITLE0=Rascal Flatts - ME AND MY GANG (vocals)
TTITLE1=Toby Keith - A LITTLE TOO LATE (vocals)
TTITLE2=THE WRECKERS - LEAVE THE PIECES (vocals)
TTITLE3=Garth Brooks - THAT GIRL IS A COWBOY (vocals)
TTITLE4=Trace Adkins - SWING (vocals)
TTITLE5=Dixie Chicks - EVERYBODY KNOWS (vocals)
TTITLE6=Miranda Lambert - NEW STRINGS(vocals)
TTITLE7=Emerson Drive - A GOOD MAN (vocals)
TTITLE8=STEVE HOLY - BRAND NEW GIRLFRIEND (vocals)
TTITLE9=Martina McBride - TIL I CAN MAKE IT ON MY OWN (vocals)
TTITLE10=Rascal Flatts - Me And The Gang (THM)
TTITLE11=Toby Keith - A Little To Late (THM)
TTITLE12=The Wheckers - Leave The Pieces (THM)
TTITLE13=Garth Brooks - That Girl Is A Cowboy (THM)
TTITLE14=Trace Adkins - Swing (THM)
TTITLE15=Dixie Chicks - Everybody Knows (THM)
TTITLE16=Miranda Lambert - New Strings (THM)
TTITLE17=Emerson Drive - A Good Man (THM)
TTITLE18=Steve Holy - Brand New Girlfriend (THM)
TTITLE19=Martina McBride - Til I Can Make It On My Own (THM)
EXTD=
EXTT0=
EXTT1=
EXTT2=
EXTT3=
EXTT4=
EXTT5=
EXTT6=
EXTT7=
EXTT8=
EXTT9=
EXTT10=
EXTT11=
EXTT12=
EXTT13=
EXTT14=
EXTT15=
EXTT16=
EXTT17=
EXTT18=
EXTT19=
PLAYORDER=
